HIERARCHY
ROOT Root
{
  OFFSET 0.0 0.0 0.0
  CHANNELS 6 Xposition Yposition Zposition Zrotation Yrotation Xrotation
  JOINT Hips
  {
    OFFSET 0.0 100.0 0.0
    CHANNELS 6 Xposition Yposition Zposition Zrotation Yrotation Xrotation
    JOINT Spine1
    {
      OFFSET 5.003913 -0.037094 -0.013727
      CHANNELS 3 Zrotation Yrotation Xrotation
      JOINT Spine2
      {
        OFFSET 7.125363 -1e-06 0.0
        CHANNELS 3 Zrotation Yrotation Xrotation
        JOINT Chest
        {
          OFFSET 7.594027 1e-06 0.0
          CHANNELS 3 Zrotation Yrotation Xrotation
          JOINT Neck1
          {
            OFFSET 26.313086 -0.460272 -0.181672
            CHANNELS 3 Zrotation Yrotation Xrotation
            JOINT Neck2
            {
              OFFSET 8.045911 0.0 0.0
              CHANNELS 3 Zrotation Yrotation Xrotation
              JOINT Head
              {
                OFFSET 6.432774 0.0 0.0
                CHANNELS 3 Zrotation Yrotation Xrotation
                JOINT HeadEnd
                {
                  OFFSET 16.169773 0.06451 0.00362
                  CHANNELS 3 Zrotation Yrotation Xrotation
                }
                JOINT Jaw
                {
                  OFFSET 0.108741 3.12938 0.002639
                  CHANNELS 3 Zrotation Yrotation Xrotation
                }
                JOINT LeftEye
                {
                  OFFSET 4.45173 8.166359 3.206392
                  CHANNELS 3 Zrotation Yrotation Xrotation
                }
                JOINT RightEye
                {
                  OFFSET 4.436895 8.135758 -3.222429
                  CHANNELS 3 Zrotation Yrotation Xrotation
                }
              }
            }
          }
          JOINT LeftShoulder
          {
            OFFSET 23.218927 5.195579 1.621656
            CHANNELS 3 Zrotation Yrotation Xrotation
            JOINT LeftArm
            {
              OFFSET 15.902118 2e-06 -2e-06
              CHANNELS 3 Zrotation Yrotation Xrotation
              JOINT LeftForeArm
              {
                OFFSET 28.739307 0.0 -1e-06
                CHANNELS 3 Zrotation Yrotation Xrotation
                JOINT LeftHand
                {
                  OFFSET 27.093981 -4e-06 0.0
                  CHANNELS 3 Zrotation Yrotation Xrotation
                  JOINT LeftHandThumb1
                  {
                    OFFSET 2.276781 3.380274 0.83384
                    CHANNELS 3 Zrotation Yrotation Xrotation
                    JOINT LeftHandThumb2
                    {
                      OFFSET 4.705309 -1e-06 -1e-06
                      CHANNELS 3 Zrotation Yrotation Xrotation
                      JOINT LeftHandThumb3
                      {
                        OFFSET 2.798515 0.0 3e-06
                        CHANNELS 3 Zrotation Yrotation Xrotation
                        JOINT LeftHandThumbEnd
                        {
                          OFFSET 3.180793 4e-06 -4e-06
                          CHANNELS 3 Zrotation Yrotation Xrotation
                        }
                      }
                    }
                  }
                  JOINT LeftHandIndex1
                  {
                    OFFSET 3.247786 2.352677 0.137192
                    CHANNELS 3 Zrotation Yrotation Xrotation
                    JOINT LeftHandIndex2
                    {
                      OFFSET 6.367095 1e-06 0.0
                      CHANNELS 3 Zrotation Yrotation Xrotation
                      JOINT LeftHandIndex3
                      {
                        OFFSET 3.662364 0.0 0.0
                        CHANNELS 3 Zrotation Yrotation Xrotation
                        JOINT LeftHandIndex4
                        {
                          OFFSET 2.329242 4e-06 -4e-06
                          CHANNELS 3 Zrotation Yrotation Xrotation
                          JOINT LeftHandIndexEnd
                          {
                            OFFSET 2.767823 1e-06 0.0
                            CHANNELS 3 Zrotation Yrotation Xrotation
                          }
                        }
                      }
                    }
                  }
                  JOINT LeftHandMiddle1
                  {
                    OFFSET 3.163612 0.945023 -0.406112
                    CHANNELS 3 Zrotation Yrotation Xrotation
                    JOINT LeftHandMiddle2
                    {
                      OFFSET 6.276789 3e-06 0.0
                      CHANNELS 3 Zrotation Yrotation Xrotation
                      JOINT LeftHandMiddle3
                      {
                        OFFSET 4.35652 -1e-06 4e-06
                        CHANNELS 3 Zrotation Yrotation Xrotation
                        JOINT LeftHandMiddle4
                        {
                          OFFSET 2.996877 0.0 8e-06
                          CHANNELS 3 Zrotation Yrotation Xrotation
                          JOINT LeftHandMiddleEnd
                          {
                            OFFSET 2.323256 3e-06 -4e-06
                            CHANNELS 3 Zrotation Yrotation Xrotation
                          }
                        }
                      }
                    }
                  }
                  JOINT LeftHandRing1
                  {
                    OFFSET 2.882606 -0.309162 0.107445
                    CHANNELS 3 Zrotation Yrotation Xrotation
                    JOINT LeftHandRing2
                    {
                      OFFSET 6.033198 0.0 4e-06
                      CHANNELS 3 Zrotation Yrotation Xrotation
                      JOINT LeftHandRing3
                      {
                        OFFSET 4.350578 3e-06 0.0
                        CHANNELS 3 Zrotation Yrotation Xrotation
                        JOINT LeftHandRing4
                        {
                          OFFSET 2.651321 2e-06 -7e-06
                          CHANNELS 3 Zrotation Yrotation Xrotation
                          JOINT LeftHandRingEnd
                          {
                            OFFSET 1.937663 1e-06 -4e-06
                            CHANNELS 3 Zrotation Yrotation Xrotation
                          }
                        }
                      }
                    }
                  }
                  JOINT LeftHandPinky1
                  {
                    OFFSET 2.865315 -1.525436 0.575687
                    CHANNELS 3 Zrotation Yrotation Xrotation
                    JOINT LeftHandPinky2
                    {
                      OFFSET 5.54936 1e-06 -8e-06
                      CHANNELS 3 Zrotation Yrotation Xrotation
                      JOINT LeftHandPinky3
                      {
                        OFFSET 3.070974 0.0 -4e-06
                        CHANNELS 3 Zrotation Yrotation Xrotation
                        JOINT LeftHandPinky4
                        {
                          OFFSET 1.549672 1e-06 0.0
                          CHANNELS 3 Zrotation Yrotation Xrotation
                          JOINT LeftHandPinkyEnd
                          {
                            OFFSET 1.952123 0.0 0.0
                            CHANNELS 3 Zrotation Yrotation Xrotation
                          }
                        }
                      }
                    }
                  }
                }
              }
            }
          }
          JOINT RightShoulder
          {
            OFFSET 23.161716 5.296122 -1.380114
            CHANNELS 3 Zrotation Yrotation Xrotation
            JOINT RightArm
            {
              OFFSET -16.027195 -2e-06 1.1e-05
              CHANNELS 3 Zrotation Yrotation Xrotation
              JOINT RightForeArm
              {
                OFFSET -28.736639 4e-06 2e-06
                CHANNELS 3 Zrotation Yrotation Xrotation
                JOINT RightHand
                {
                  OFFSET -27.133619 6e-06 0.0
                  CHANNELS 3 Zrotation Yrotation Xrotation
                  JOINT RightHandThumb1
                  {
                    OFFSET -2.274328 -3.351035 -0.83067
                    CHANNELS 3 Zrotation Yrotation Xrotation
                    JOINT RightHandThumb2
                    {
                      OFFSET -4.703594 -3e-06 2e-06
                      CHANNELS 3 Zrotation Yrotation Xrotation
                      JOINT RightHandThumb3
                      {
                        OFFSET -2.794935 -4e-06 -3e-06
                        CHANNELS 3 Zrotation Yrotation Xrotation
                        JOINT RightHandThumbEnd
                        {
                          OFFSET -3.183852 4e-06 1e-06
                          CHANNELS 3 Zrotation Yrotation Xrotation
                        }
                      }
                    }
                  }
                  JOINT RightHandIndex1
                  {
                    OFFSET -3.253496 -2.33755 -0.127667
                    CHANNELS 3 Zrotation Yrotation Xrotation
                    JOINT RightHandIndex2
                    {
                      OFFSET -6.344434 0.0 0.0
                      CHANNELS 3 Zrotation Yrotation Xrotation
                      JOINT RightHandIndex3
                      {
                        OFFSET -3.654871 0.0 -8e-06
                        CHANNELS 3 Zrotation Yrotation Xrotation
                        JOINT RightHandIndex4
                        {
                          OFFSET -2.327586 -1e-06 0.0
                          CHANNELS 3 Zrotation Yrotation Xrotation
                          JOINT RightHandIndexEnd
                          {
                            OFFSET -2.770001 3e-06 8e-06
                            CHANNELS 3 Zrotation Yrotation Xrotation
                          }
                        }
                      }
                    }
                  }
                  JOINT RightHandMiddle1
                  {
                    OFFSET -3.168223 -0.944764 0.411762
                    CHANNELS 3 Zrotation Yrotation Xrotation
                    JOINT RightHandMiddle2
                    {
                      OFFSET -6.266691 -1e-06 -4e-06
                      CHANNELS 3 Zrotation Yrotation Xrotation
                      JOINT RightHandMiddle3
                      {
                        OFFSET -4.348901 0.0 0.0
                        CHANNELS 3 Zrotation Yrotation Xrotation
                        JOINT RightHandMiddle4
                        {
                          OFFSET -3.00024 2e-06 -4e-06
                          CHANNELS 3 Zrotation Yrotation Xrotation
                          JOINT RightHandMiddleEnd
                          {
                            OFFSET -2.321477 -4e-06 -4e-06
                            CHANNELS 3 Zrotation Yrotation Xrotation
                          }
                        }
                      }
                    }
                  }
                  JOINT RightHandRing1
                  {
                    OFFSET -2.885654 0.293261 -0.119232
                    CHANNELS 3 Zrotation Yrotation Xrotation
                    JOINT RightHandRing2
                    {
                      OFFSET -6.032835 -1e-06 -4e-06
                      CHANNELS 3 Zrotation Yrotation Xrotation
                      JOINT RightHandRing3
                      {
                        OFFSET -4.33881 0.0 -4e-06
                        CHANNELS 3 Zrotation Yrotation Xrotation
                        JOINT RightHandRing4
                        {
                          OFFSET -2.654903 -4e-06 -4e-06
                          CHANNELS 3 Zrotation Yrotation Xrotation
                          JOINT RightHandRingEnd
                          {
                            OFFSET -1.935122 0.0 4e-06
                            CHANNELS 3 Zrotation Yrotation Xrotation
                          }
                        }
                      }
                    }
                  }
                  JOINT RightHandPinky1
                  {
                    OFFSET -2.866241 1.503904 -0.60527
                    CHANNELS 3 Zrotation Yrotation Xrotation
                    JOINT RightHandPinky2
                    {
                      OFFSET -5.553177 -2e-06 0.0
                      CHANNELS 3 Zrotation Yrotation Xrotation
                      JOINT RightHandPinky3
                      {
                        OFFSET -3.062664 -1e-06 -4e-06
                        CHANNELS 3 Zrotation Yrotation Xrotation
                        JOINT RightHandPinky4
                        {
                          OFFSET -1.546529 2e-06 4e-06
                          CHANNELS 3 Zrotation Yrotation Xrotation
                          JOINT RightHandPinkyEnd
                          {
                            OFFSET -1.952341 0.0 -4e-06
                            CHANNELS 3 Zrotation Yrotation Xrotation
                          }
                        }
                      }
                    }
                  }
                }
              }
            }
          }
        }
      }
    }
    JOINT LeftLeg
    {
      OFFSET -8.443107 2.567604 10.043214
      CHANNELS 3 Zrotation Yrotation Xrotation
      JOINT LeftShin
      {
        OFFSET 43.229198 1e-06 -1e-06
        CHANNELS 3 Zrotation Yrotation Xrotation
        JOINT LeftFoot
        {
          OFFSET 42.298611 1e-06 1e-06
          CHANNELS 3 Zrotation Yrotation Xrotation
          JOINT LeftToeBase
          {
            OFFSET 14.165858 1e-06 0.0
            CHANNELS 3 Zrotation Yrotation Xrotation
            JOINT LeftToeEnd
            {
              OFFSET 6.7141 -0.234461 0.0
              CHANNELS 3 Zrotation Yrotation Xrotation
            }
          }
        }
      }
    }
    JOINT RightLeg
    {
      OFFSET -8.303923 2.592729 -10.047278
      CHANNELS 3 Zrotation Yrotation Xrotation
      JOINT RightShin
      {
        OFFSET -43.369682 0.0 1e-06
        CHANNELS 3 Zrotation Yrotation Xrotation
        JOINT RightFoot
        {
          OFFSET -42.260784 4e-06 2e-06
          CHANNELS 3 Zrotation Yrotation Xrotation
          JOINT RightToeBase
          {
            OFFSET -14.222245 -2e-06 -1e-06
            CHANNELS 3 Zrotation Yrotation Xrotation
            JOINT RightToeEnd
            {
              OFFSET -6.660062 0.232574 -2e-06
              CHANNELS 3 Zrotation Yrotation Xrotation
            }
          }
        }
      }
    }
  }
}
MOTION
Frames: 4
Frame Time: 0.03333333333333333
0.0 0.0 0.0 0.0 -0.0 0.0 -16.515438 48.575695 221.874146 101.448036 -59.300591 83.551414 11.775341 -2.210537 -1.295519 -5.959927 -1.318814 -0.961706 18.945387 -4.468688 -5.015707 16.249033 6.413631 3.505884 -2.533794 -0.069395 1.342956 -31.969149 3.213666 -0.920567 7e-06 -0.0 -0.0 -0.15855 0.230486 -0.098847 -0.060199 0.202945 0.006322 0.006861 0.265 -0.221892 -58.48127 -83.795876 71.066292 67.909668 -18.049324 -32.663967 53.252102 -0.155536 -0.419868 45.039917 70.382156 62.82843 17.636625 -26.322729 52.411182 -19.466658 -14.395598 29.410389 -2e-06 -8.77482 -1e-06 15.849936 -18.959757 6.986755 -0.609775 -1.795653 -3.889326 -4.807087 -11.046811 -2.93785 5e-06 -20.976019 -1e-06 -5.019968 -25.033554 -4.03188 6e-06 -1e-06 0.0 -10.634529 -5.686967 -3.565587 10.573272 -17.922951 -3.113901 4e-06 -13.821209 3e-06 -0.501775 -31.181505 -4.027014 -12.151244 -60.208656 8.478562 -13.982711 -7.150194 -2.875042 13.772726 -8.40149 -3.218241 0.347733 -34.211544 0.771655 -0.96303 -17.73337 2.62102 0.0 -1e-06 1e-06 -17.346415 -20.095215 -4.20178 21.757555 -1.638376 3.866427 1e-06 -6.338825 -0.0 -1.697588 -22.59174 -6.194004 -1e-06 -4e-06 -3e-06 147.669785 -71.849113 37.152454 87.839737 -8.289373 -26.398966 23.756367 -0.732425 -0.003861 -9.817948 71.919014 -7.410318 22.182117 -20.375887 49.933308 -16.701807 -16.743523 28.476519 -1e-06 -12.690601 -2e-06 15.657751 -17.67169 3.246071 -0.105919 -1.513857 -4.275881 -5.039039 -5.61287 -2.953555 4e-06 -11.020519 -3e-06 -6.111296 -15.895324 -3.840472 -0.0 -0.0 0.0 -10.283369 -5.680287 -4.341839 11.02829 -11.302402 -2.372629 -1.38427 -14.238575 -6.320121 -0.625439 -26.924179 -3.8276 -3.986995 -48.984123 -4.516248 -13.708521 -7.363476 -3.72094 18.141146 -14.052736 -3.242671 5e-06 -18.78726 -0.0 -0.429711 -8.456038 2.555502 -0.0 -1e-06 -0.0 -15.923532 -20.094481 -5.473586 30.419205 -7.190823 1.73593 3e-06 -8.162922 0.0 -1.861904 -22.86146 -6.167939 0.0 -2e-06 -2e-06 115.042023 1.319834 0.647389 113.864685 -0.06707 0.584604 -78.51577 20.760172 -6.159084 -18.938498 1.304633 1.612618 -0.999999 -0.0 0.0 -30.043964 -20.850458 -16.990307 79.696777 -5.602089 1.974262 -68.973534 5.867285 -12.496136 -7.915634 0.488039 2.069196 -1.000003 1e-06 1e-06 
0.0 0.0 0.0 0.0 -0.0 0.0 -16.076881 48.93705 222.948196 100.580009 -59.274014 83.593704 11.998672 -1.924662 -1.284056 -5.82145 -1.14262 -1.031754 18.845879 -3.873555 -4.742622 16.365311 6.053026 3.570977 -2.511945 -0.085425 1.687559 -31.750317 3.316203 -0.658551 8e-06 -1e-06 0.0 -0.146444 0.248728 -0.100388 -0.043553 0.220511 0.009262 0.012437 0.283686 -0.227799 -50.883419 -83.033279 63.014767 66.978462 -13.726383 -36.671093 57.230824 0.291451 -0.272184 38.396355 67.313759 57.908375 17.636635 -26.322737 52.411205 -19.466665 -14.395602 29.410395 -2e-06 -8.77482 -1e-06 15.511013 -18.980623 7.402959 -0.609774 -1.795654 -3.889328 -4.807088 -11.046813 -2.937852 6e-06 -20.976021 0.0 -5.019969 -25.033562 -4.031881 7e-06 0.0 1e-06 -10.634535 -5.686971 -3.565589 10.573275 -17.922955 -3.113902 3e-06 -13.821213 1e-06 -0.501775 -31.181505 -4.027016 -11.950871 -60.104305 8.322229 -13.982714 -7.150197 -2.875043 13.772731 -8.401497 -3.218243 0.347737 -34.211559 0.771655 -0.963028 -17.733374 2.621022 -0.0 -1e-06 0.0 -17.346422 -20.095219 -4.201783 21.757561 -1.638377 3.86643 1e-06 -6.338823 1e-06 -1.697586 -22.591745 -6.194009 -2e-06 -5e-06 -3e-06 147.792877 -72.35553 37.006413 88.453926 -7.985357 -24.874914 23.197674 -0.523445 0.008442 -9.16077 71.939812 -7.489567 22.182119 -20.375895 49.933323 -16.701817 -16.743526 28.47653 -2e-06 -12.690601 -0.0 15.711853 -17.754927 3.214982 -0.105921 -1.513855 -4.275882 -5.039041 -5.612872 -2.953556 5e-06 -11.020519 -2e-06 -6.111296 -15.89533 -3.840471 -0.0 1e-06 -0.0 -10.283371 -5.680286 -4.341839 11.028296 -11.302405 -2.372633 -1.384268 -14.238583 -6.320122 -0.625436 -26.924187 -3.827604 -3.930858 -49.026089 -4.56213 -13.708526 -7.363475 -3.72094 18.14115 -14.052739 -3.242675 7e-06 -18.78727 -0.0 -0.429711 -8.456041 2.555504 0.0 -0.0 -1e-06 -15.923536 -20.094482 -5.473587 30.419214 -7.190826 1.735922 3e-06 -8.162928 -0.0 -1.8619 -22.861467 -6.167942 0.0 -2e-06 -2e-06 116.47776 1.200751 0.511131 112.384705 -0.150582 0.528896 -78.641502 20.440601 -6.417667 -19.309334 1.305263 1.596072 -1.0 -0.0 0.0 -33.365391 -21.712645 -15.624835 84.503616 -5.055096 1.623322 -71.484184 5.426672 -12.240663 -8.249868 0.483618 2.08304 -1.000004 -0.0 1e-06 
0.0 0.0 0.0 0.0 -0.0 0.0 -15.671357 49.174564 223.896759 99.657303 -59.146679 83.86425 12.292942 -1.625253 -1.293211 -5.683352 -1.030751 -1.157387 18.774397 -3.122643 -4.603157 16.24011 5.592406 3.603691 -2.491321 -0.062233 1.996056 -31.539759 3.403774 -0.363291 5e-06 -1e-06 0.0 -0.141408 0.249503 -0.095411 -0.029126 0.22143 0.010057 0.01282 0.283924 -0.217735 -41.867573 -82.324707 53.35503 65.646019 -8.175034 -40.065243 58.369862 0.864904 0.052281 28.58839 64.688049 49.816425 17.636627 -26.322733 52.411194 -19.466658 -14.395596 29.410385 -0.0 -8.774818 -2e-06 15.163307 -18.881145 7.649466 -0.609777 -1.795654 -3.889328 -4.807088 -11.046809 -2.937851 4e-06 -20.976017 1e-06 -5.019969 -25.033556 -4.031882 6e-06 0.0 -0.0 -10.634533 -5.68697 -3.565588 10.573275 -17.922947 -3.1139 3e-06 -13.82121 1e-06 -0.501777 -31.181501 -4.027014 -11.732498 -59.798244 8.080946 -13.982713 -7.150197 -2.875041 13.772727 -8.401492 -3.218241 0.347732 -34.211555 0.771656 -0.963029 -17.73337 2.621019 -0.0 -1e-06 0.0 -17.346416 -20.095213 -4.201783 21.757557 -1.638377 3.866428 1e-06 -6.338824 2e-06 -1.697589 -22.591738 -6.194006 -1e-06 -5e-06 -2e-06 147.69072 -72.871292 37.07542 89.094643 -7.582469 -23.280725 22.66995 -0.339586 0.029071 -8.673165 71.740471 -7.535797 22.182108 -20.375895 49.933327 -16.701813 -16.74353 28.476532 -2e-06 -12.690601 0.0 15.787966 -17.824327 3.13898 -0.10592 -1.513857 -4.275882 -5.03904 -5.612871 -2.953556 5e-06 -11.020519 -3e-06 -6.111297 -15.895334 -3.840471 0.0 1e-06 -1e-06 -10.283369 -5.680285 -4.341839 11.028295 -11.302407 -2.372634 -1.384267 -14.238585 -6.320122 -0.625437 -26.924194 -3.827602 -3.884056 -49.038197 -4.618508 -13.708522 -7.363477 -3.720941 18.141146 -14.052739 -3.242675 6e-06 -18.787273 -2e-06 -0.429711 -8.456043 2.555504 0.0 -0.0 -0.0 -15.923532 -20.094482 -5.473586 30.41921 -7.190825 1.735923 3e-06 -8.162924 -0.0 -1.861902 -22.861467 -6.167942 -0.0 -3e-06 -1e-06 117.857895 1.156427 0.504578 111.109947 -0.214392 0.470477 -78.534866 20.272905 -6.598354 -19.426924 1.299635 1.605454 -0.999999 1e-06 -1e-06 -37.291561 -22.674267 -13.640178 89.814468 -4.481928 1.277922 -74.224518 5.944216 -12.009091 -8.785404 0.495886 2.077358 -1.000004 0.0 0.0 
0.0 0.0 0.0 0.0 -0.0 0.0 -15.308283 49.32061 224.718475 98.669777 -58.960125 84.346832 12.619608 -1.327092 -1.317098 -5.52684 -0.94423 -1.348767 18.754782 -2.268801 -4.571315 15.845486 5.134313 3.575469 -2.476526 -0.033471 2.325094 -31.315018 3.440192 -0.028014 4e-06 -0.0 -0.0 -0.142722 0.230669 -0.082901 -0.015336 0.203838 0.014252 0.015917 0.263179 -0.195763 -31.908407 -81.566948 42.624771 63.829384 -1.89414 -42.625626 56.275509 1.303905 0.353181 18.185192 62.298122 40.050125 17.636633 -26.322723 52.411182 -19.46665 -14.395592 29.410378 0.0 -8.774819 -1e-06 14.952133 -18.771814 7.687311 -0.609777 -1.795654 -3.889325 -4.80709 -11.046813 -2.93785 1e-06 -20.976017 0.0 -5.019973 -25.03356 -4.031884 6e-06 -2e-06 1e-06 -10.634535 -5.686972 -3.565585 10.573266 -17.922947 -3.113896 1e-06 -13.821213 1e-06 -0.501782 -31.181505 -4.027017 -11.547534 -59.488197 7.859258 -13.982714 -7.1502 -2.87504 13.772727 -8.40149 -3.218239 0.34773 -34.211555 0.771654 -0.963028 -17.73337 2.621017 -0.0 -1e-06 -0.0 -17.346422 -20.095221 -4.201779 21.757555 -1.638373 3.866431 1e-06 -6.338823 1e-06 -1.697591 -22.591745 -6.194009 -1e-06 -6e-06 -1e-06 147.214294 -73.400986 37.499283 89.781776 -7.086957 -21.633455 22.206869 -0.162345 0.043758 -8.394133 71.452148 -7.671399 22.182112 -20.375898 49.933308 -16.701809 -16.743523 28.476521 -1e-06 -12.6906 -1e-06 15.820482 -17.865072 3.072258 -0.10592 -1.513856 -4.27588 -5.039041 -5.612873 -2.953555 3e-06 -11.020525 -2e-06 -6.111297 -15.895334 -3.84047 -1e-06 -0.0 -0.0 -10.283369 -5.680288 -4.341836 11.028292 -11.302407 -2.372633 -1.384269 -14.238585 -6.320121 -0.62544 -26.924198 -3.8276 -3.852516 -49.002903 -4.623776 -13.708522 -7.363478 -3.720939 18.141146 -14.052742 -3.242673 4e-06 -18.787275 1e-06 -0.429713 -8.456047 2.555504 -0.0 -0.0 -1e-06 -15.923536 -20.094484 -5.473582 30.419205 -7.190823 1.735927 2e-06 -8.162925 1e-06 -1.861905 -22.861471 -6.167942 1e-06 -3e-06 -1e-06 119.144264 1.144738 0.646572 110.067108 -0.249875 0.410678 -78.474152 20.062567 -6.797664 -19.232702 1.290279 1.628427 -0.999999 -0.0 0.0 -41.835739 -23.567051 -11.066933 95.458427 -3.909417 0.974339 -77.168541 7.181564 -11.806762 -9.371529 0.51302 2.06034 -1.000001 0.0 0.0 
